<svg width="27" height="28" viewBox="0 0 27 28" fill="none" xmlns="http://www.w3.org/2000/svg">
<path d="M3.93921 11.4316L12.91 20.1762C13.0675 20.3298 13.2789 20.4158 13.4989 20.4158C13.7189 20.4158 13.9303 20.3298 14.0878 20.1762L23.062 11.4316C23.1354 11.3601 23.1938 11.2745 23.2337 11.18C23.2736 11.0856 23.2941 10.984 23.2941 10.8815C23.2941 10.7789 23.2736 10.6774 23.2337 10.5829C23.1938 10.4884 23.1354 10.4029 23.062 10.3314C22.9113 10.1842 22.709 10.1018 22.4983 10.1018C22.2877 10.1018 22.0854 10.1842 21.9347 10.3314L13.4989 18.5545L5.06478 10.3314C4.91416 10.1847 4.71223 10.1026 4.502 10.1026C4.29176 10.1026 4.08983 10.1847 3.93921 10.3314C3.86574 10.4029 3.80733 10.4884 3.76745 10.5829C3.72758 10.6774 3.70703 10.7789 3.70703 10.8815C3.70703 10.984 3.72758 11.0856 3.76745 11.18C3.80733 11.2745 3.86574 11.3601 3.93921 11.4316Z" fill="black"/>
</svg>
