<svg width="27" height="26" viewBox="0 0 27 26" fill="none" xmlns="http://www.w3.org/2000/svg">
<path d="M13.5755 18.3333C14.99 18.3333 16.3466 17.7714 17.3468 16.7712C18.347 15.771 18.9089 14.4145 18.9089 13C18.9089 11.5855 18.347 10.2289 17.3468 9.22875C16.3466 8.22856 14.99 7.66666 13.5755 7.66666C12.161 7.66666 10.8045 8.22856 9.80428 9.22875C8.80409 10.2289 8.24219 11.5855 8.24219 13C8.24219 14.4145 8.80409 15.771 9.80428 16.7712C10.8045 17.7714 12.161 18.3333 13.5755 18.3333Z" stroke="#FAFAFA" stroke-width="1.5" stroke-linecap="round" stroke-linejoin="round"/>
<path d="M1.57422 18.3333V7.66667C1.57422 5.89856 2.2766 4.20286 3.52684 2.95262C4.77708 1.70238 6.47278 1 8.24089 1H18.9076C20.6757 1 22.3714 1.70238 23.6216 2.95262C24.8718 4.20286 25.5742 5.89856 25.5742 7.66667V18.3333C25.5742 20.1014 24.8718 21.7971 23.6216 23.0474C22.3714 24.2976 20.6757 25 18.9076 25H8.24089C6.47278 25 4.77708 24.2976 3.52684 23.0474C2.2766 21.7971 1.57422 20.1014 1.57422 18.3333Z" stroke="#FAFAFA" stroke-width="1.5"/>
<path d="M20.9062 5.68004L20.9196 5.66537" stroke="#FAFAFA" stroke-width="1.5" stroke-linecap="round" stroke-linejoin="round"/>
</svg>
