<svg width="35" height="36" viewBox="0 0 35 36" fill="none" xmlns="http://www.w3.org/2000/svg">
<path d="M1.55132 1.06459C1.148 1.21506 0.689995 1.55704 0.437065 1.90586C-0.0414505 2.56247 -0.00727085 1.38605 0.00640102 16.488L0.0269088 30.1331L0.197807 30.475C0.409721 30.9128 0.888237 31.3916 1.32574 31.6036L1.66753 31.7746L9.76812 31.7951L17.8687 31.8156L18.2447 32.3286C18.73 33.0057 19.7281 33.9496 20.4459 34.4284C22.0523 35.4953 23.6861 35.981 25.6207 35.981C26.7486 35.981 27.6168 35.851 28.5669 35.5295C31.7867 34.4557 34.2134 31.6173 34.7535 28.3206C34.8902 27.4793 34.8834 25.9335 34.7466 25.1401C34.1793 21.8297 31.7662 19.0323 28.5669 17.9653C27.5621 17.6302 26.7964 17.5139 25.6138 17.5139H24.6021L24.5884 10.0724L24.5679 2.63771L24.397 2.29572C24.1851 1.85799 23.7066 1.37921 23.2691 1.16718L22.9273 0.996193L12.3658 0.982513C3.54058 0.975674 1.76324 0.989353 1.55132 1.06459ZM22.4283 3.137C22.4966 3.20539 22.524 4.66224 22.5377 10.6127L22.5513 17.9995L22.3394 18.0748C21.8951 18.2252 20.9244 18.7382 20.398 19.0939L19.8511 19.4632L14.3482 19.4837C9.35796 19.5043 8.8316 19.5179 8.65386 19.6205C8.35308 19.7984 8.19585 20.113 8.19585 20.5302C8.19585 20.9406 8.33257 21.2073 8.64703 21.4194C8.83843 21.5425 9.05035 21.5493 13.3775 21.5493C15.8658 21.5493 17.9029 21.5562 17.9029 21.5698C17.9029 21.5835 17.7662 21.8366 17.5953 22.1375C17.4244 22.4316 17.1988 22.883 17.0962 23.1361L16.9117 23.6012H12.8785C9.04351 23.6012 8.83843 23.608 8.64703 23.7312C8.33257 23.9432 8.19585 24.2031 8.19585 24.6272C8.19585 25.0512 8.33257 25.3111 8.64703 25.5231C8.83843 25.6463 9.03667 25.6531 12.6255 25.6531H16.399V26.6585C16.399 27.7255 16.5152 28.6283 16.7339 29.3397L16.8638 29.7569L9.55621 29.7432C3.6773 29.7295 2.23492 29.7022 2.16656 29.6338C2.09136 29.5585 2.07085 27.1031 2.05718 16.5701C2.05035 9.43631 2.05718 3.49266 2.07769 3.36955C2.10503 3.22591 2.17339 3.12332 2.2691 3.08228C2.35796 3.04808 6.69195 3.02757 12.3794 3.0344C20.4459 3.04808 22.3531 3.06176 22.4283 3.137ZM26.4136 19.6616C27.7808 19.771 29.3189 20.4687 30.4605 21.5083C31.3765 22.3427 32.2037 23.7243 32.5455 24.9691C32.6822 25.4684 32.7027 25.7147 32.7027 26.7474C32.7027 28.1427 32.5933 28.6694 32.0806 29.75C31.356 31.2821 30.1939 32.4517 28.6695 33.1835C25.5318 34.6814 21.8335 33.6965 19.7828 30.817C19.3726 30.2493 18.9078 29.2439 18.7095 28.5257C18.5728 28.0196 18.5523 27.7871 18.5523 26.7474C18.5523 25.359 18.6617 24.8323 19.1607 23.7654C19.564 22.9172 19.9468 22.3701 20.5962 21.7135C21.8062 20.5097 23.358 19.7778 24.9986 19.6411C25.3267 19.6137 25.6685 19.6 25.7642 19.6069C25.8599 19.6205 26.1539 19.6411 26.4136 19.6616Z" fill="url(#paint0_linear_24708_2229)"/>
<path d="M4.54492 7.31585C4.23047 7.52788 4.09375 7.78779 4.09375 8.21185C4.09375 8.86161 4.46973 9.23779 5.11914 9.23779C5.76855 9.23779 6.14453 8.86161 6.14453 8.21185C6.14453 7.56208 5.76855 7.1859 5.11914 7.1859C4.86621 7.1859 4.68164 7.22694 4.54492 7.31585Z" fill="url(#paint1_linear_24708_2229)"/>
<path d="M8.64648 7.31585C8.33203 7.52788 8.19531 7.78779 8.19531 8.21185C8.19531 8.6359 8.33203 8.89581 8.64648 9.10784C8.83789 9.23095 9.07031 9.23779 14.3477 9.23779C19.625 9.23779 19.8574 9.23095 20.0488 9.10784C20.3633 8.89581 20.5 8.6359 20.5 8.21185C20.5 7.78779 20.3633 7.52788 20.0488 7.31585C19.8574 7.19274 19.625 7.1859 14.3477 7.1859C9.07031 7.1859 8.83789 7.19274 8.64648 7.31585Z" fill="url(#paint2_linear_24708_2229)"/>
<path d="M4.54492 11.4199C4.23047 11.6319 4.09375 11.8918 4.09375 12.3159C4.09375 12.9656 4.46973 13.3418 5.11914 13.3418C5.76855 13.3418 6.14453 12.9656 6.14453 12.3159C6.14453 11.6661 5.76855 11.2899 5.11914 11.2899C4.86621 11.2899 4.68164 11.3309 4.54492 11.4199Z" fill="url(#paint3_linear_24708_2229)"/>
<path d="M8.64648 11.4199C8.33203 11.6319 8.19531 11.8918 8.19531 12.3159C8.19531 12.7399 8.33203 12.9998 8.64648 13.2118C8.83789 13.335 9.07031 13.3418 14.3477 13.3418C19.625 13.3418 19.8574 13.335 20.0488 13.2118C20.3633 12.9998 20.5 12.7399 20.5 12.3159C20.5 11.8918 20.3633 11.6319 20.0488 11.4199C19.8574 11.2967 19.625 11.2899 14.3477 11.2899C9.07031 11.2899 8.83789 11.2967 8.64648 11.4199Z" fill="url(#paint4_linear_24708_2229)"/>
<path d="M4.54492 15.5234C4.23047 15.7354 4.09375 15.9953 4.09375 16.4194C4.09375 17.0691 4.46973 17.4453 5.11914 17.4453C5.76855 17.4453 6.14453 17.0691 6.14453 16.4194C6.14453 15.7696 5.76855 15.3934 5.11914 15.3934C4.86621 15.3934 4.68164 15.4345 4.54492 15.5234Z" fill="url(#paint5_linear_24708_2229)"/>
<path d="M8.64648 15.5234C8.33203 15.7354 8.19531 15.9953 8.19531 16.4194C8.19531 16.8434 8.33203 17.1033 8.64648 17.3154C8.83789 17.4385 9.07031 17.4453 14.3477 17.4453C19.625 17.4453 19.8574 17.4385 20.0488 17.3154C20.3633 17.1033 20.5 16.8434 20.5 16.4194C20.5 15.9953 20.3633 15.7354 20.0488 15.5234C19.8574 15.4003 19.625 15.3934 14.3477 15.3934C9.07031 15.3934 8.83789 15.4003 8.64648 15.5234Z" fill="url(#paint6_linear_24708_2229)"/>
<path d="M4.54492 19.6274C4.23047 19.8394 4.09375 20.0993 4.09375 20.5234C4.09375 21.1731 4.46973 21.5493 5.11914 21.5493C5.76855 21.5493 6.14453 21.1731 6.14453 20.5234C6.14453 19.8736 5.76855 19.4974 5.11914 19.4974C4.86621 19.4974 4.68164 19.5385 4.54492 19.6274Z" fill="url(#paint7_linear_24708_2229)"/>
<path d="M4.54492 23.7314C4.23047 23.9434 4.09375 24.2033 4.09375 24.6274C4.09375 25.2771 4.46973 25.6533 5.11914 25.6533C5.76855 25.6533 6.14453 25.2771 6.14453 24.6274C6.14453 23.9776 5.76855 23.6014 5.11914 23.6014C4.86621 23.6014 4.68164 23.6425 4.54492 23.7314Z" fill="url(#paint8_linear_24708_2229)"/>
<path d="M25.0542 21.6794C24.6167 21.9735 24.603 22.0213 24.603 23.9228V25.6532H23.3931C22.0532 25.6532 21.937 25.6874 21.6567 26.1046C21.479 26.3713 21.479 26.9869 21.6567 27.2537C21.9507 27.6982 21.978 27.7051 24.0903 27.7051C26.2026 27.7051 26.23 27.6982 26.5239 27.2537C26.647 27.069 26.6538 26.8912 26.6538 24.6272C26.6538 22.3633 26.647 22.1855 26.5239 22.0008C26.312 21.6862 26.0522 21.5494 25.6284 21.5494C25.3755 21.5494 25.1909 21.5904 25.0542 21.6794Z" fill="url(#paint9_linear_24708_2229)"/>
<defs>
<linearGradient id="paint0_linear_24708_2229" x1="17.4263" y1="35.981" x2="17.4263" y2="0.980957" gradientUnits="userSpaceOnUse">
<stop offset="0.452535" stop-color="#FFA588"/>
<stop offset="1" stop-color="#F36A3E"/>
</linearGradient>
<linearGradient id="paint1_linear_24708_2229" x1="5.11914" y1="9.23779" x2="5.11914" y2="7.1859" gradientUnits="userSpaceOnUse">
<stop offset="0.452535" stop-color="#FFA588"/>
<stop offset="1" stop-color="#F36A3E"/>
</linearGradient>
<linearGradient id="paint2_linear_24708_2229" x1="14.3477" y1="9.23779" x2="14.3477" y2="7.1859" gradientUnits="userSpaceOnUse">
<stop offset="0.452535" stop-color="#FFA588"/>
<stop offset="1" stop-color="#F36A3E"/>
</linearGradient>
<linearGradient id="paint3_linear_24708_2229" x1="5.11914" y1="13.3418" x2="5.11914" y2="11.2899" gradientUnits="userSpaceOnUse">
<stop offset="0.452535" stop-color="#FFA588"/>
<stop offset="1" stop-color="#F36A3E"/>
</linearGradient>
<linearGradient id="paint4_linear_24708_2229" x1="14.3477" y1="13.3418" x2="14.3477" y2="11.2899" gradientUnits="userSpaceOnUse">
<stop offset="0.452535" stop-color="#FFA588"/>
<stop offset="1" stop-color="#F36A3E"/>
</linearGradient>
<linearGradient id="paint5_linear_24708_2229" x1="5.11914" y1="17.4453" x2="5.11914" y2="15.3934" gradientUnits="userSpaceOnUse">
<stop offset="0.452535" stop-color="#FFA588"/>
<stop offset="1" stop-color="#F36A3E"/>
</linearGradient>
<linearGradient id="paint6_linear_24708_2229" x1="14.3477" y1="17.4453" x2="14.3477" y2="15.3934" gradientUnits="userSpaceOnUse">
<stop offset="0.452535" stop-color="#FFA588"/>
<stop offset="1" stop-color="#F36A3E"/>
</linearGradient>
<linearGradient id="paint7_linear_24708_2229" x1="5.11914" y1="21.5493" x2="5.11914" y2="19.4974" gradientUnits="userSpaceOnUse">
<stop offset="0.452535" stop-color="#FFA588"/>
<stop offset="1" stop-color="#F36A3E"/>
</linearGradient>
<linearGradient id="paint8_linear_24708_2229" x1="5.11914" y1="25.6533" x2="5.11914" y2="23.6014" gradientUnits="userSpaceOnUse">
<stop offset="0.452535" stop-color="#FFA588"/>
<stop offset="1" stop-color="#F36A3E"/>
</linearGradient>
<linearGradient id="paint9_linear_24708_2229" x1="24.0886" y1="27.7051" x2="24.0886" y2="21.5494" gradientUnits="userSpaceOnUse">
<stop offset="0.452535" stop-color="#FFA588"/>
<stop offset="1" stop-color="#F36A3E"/>
</linearGradient>
</defs>
</svg>
