<svg width="36" height="36" viewBox="0 0 36 36" fill="none" xmlns="http://www.w3.org/2000/svg">
<path d="M21.902 0.532597C21.7899 0.609688 21.4465 0.91805 21.1521 1.23342C20.6265 1.76605 20.6055 1.8081 20.6055 2.11646C20.6055 2.36875 20.6475 2.48089 20.7737 2.61404C20.9769 2.81728 21.2362 2.89437 21.4955 2.82429C21.7758 2.75421 22.9042 1.62588 22.9883 1.33154C23.0583 1.06522 22.9602 0.728828 22.757 0.56063C22.5608 0.392432 22.1333 0.385424 21.902 0.532597Z" fill="url(#paint0_linear_24708_2197)"/>
<path d="M27.8794 0.518713C27.6341 0.644861 27.543 0.820067 27.543 1.14245C27.543 1.47183 27.7112 1.71011 28.0055 1.80823C28.4961 1.96942 28.9446 1.65405 28.9446 1.14245C28.9446 0.813059 28.8465 0.644861 28.5942 0.511705C28.3419 0.378548 28.1247 0.378548 27.8794 0.518713Z" fill="url(#paint1_linear_24708_2197)"/>
<path d="M32.8686 1.47883C32.6303 1.59797 32.4341 1.99744 32.4901 2.26376C32.5812 2.71929 33.0718 2.96458 33.5063 2.78937C34.0389 2.56511 34.06 1.74515 33.5344 1.49285C33.254 1.3667 33.0998 1.35969 32.8686 1.47883Z" fill="url(#paint2_linear_24708_2197)"/>
<path d="M18.0462 2.4669C17.9341 2.52297 15.7195 4.68851 13.1334 7.28156C8.62012 11.8229 8.42389 12.0261 8.21365 12.4957C7.72307 13.603 7.77213 14.8084 8.35381 15.8246C8.48697 16.0559 9.04763 16.6936 9.78349 17.4365C10.4773 18.1443 11.0099 18.747 11.038 18.8521C11.066 18.9643 11.045 19.1115 10.9819 19.2306C10.7997 19.574 9.65033 20.6463 5.39634 24.4377C3.13969 26.4491 1.14234 28.2782 0.960128 28.4955C0.301354 29.2734 0 30.1494 0 31.2427C0 32.0206 0.112132 32.4902 0.448527 33.17C0.770905 33.8147 1.21242 34.3053 1.86419 34.7398C2.62108 35.2514 3.19575 35.4126 4.20494 35.4126C4.87072 35.4126 5.10199 35.3846 5.52949 35.2444C6.6438 34.88 6.66483 34.8519 11.1711 29.7079C13.4208 27.1359 15.4391 24.8722 15.6494 24.676C16.0629 24.3046 16.2731 24.2205 16.5394 24.3186C16.6305 24.3536 17.2683 24.9353 17.9551 25.6081C19.0554 26.6873 19.2726 26.8696 19.7282 27.0868C20.7374 27.5634 21.8236 27.5704 22.8538 27.1008C23.3584 26.8766 23.4846 26.7574 28.0539 22.2091C30.633 19.6441 32.7845 17.4575 32.8406 17.3524C32.8966 17.2473 32.9387 17.058 32.9387 16.9319C32.9387 16.7216 32.378 16.14 25.8113 9.57325C20.2678 4.03675 18.6279 2.43887 18.4667 2.41084C18.3546 2.38981 18.1653 2.41785 18.0462 2.4669ZM18.0392 7.28857C17.1071 8.22767 16.2941 9.06866 16.2311 9.16677C15.8106 9.80452 16.6025 10.5965 17.2402 10.176C17.3384 10.1129 18.1794 9.29993 19.1114 8.36783L20.8144 6.67885L21.7606 7.62496L22.7067 8.56406L20.9266 10.3582C19.1255 12.1733 19.0344 12.2854 19.1185 12.7059C19.1535 12.9232 19.4408 13.2175 19.6441 13.2456C20.0295 13.3086 20.2187 13.1615 21.9848 11.3954L23.7579 9.62231L24.718 10.5824L25.6852 11.5496L23.877 13.3577L22.0759 15.1728V15.4882C22.0759 15.9998 22.4894 16.3292 22.973 16.21C23.0921 16.182 23.8 15.5302 24.9493 14.3809L26.7364 12.6008L27.7035 13.5679L28.6637 14.5281L26.9116 16.2801C25.0474 18.1443 24.9423 18.2845 25.0895 18.726C25.1876 19.0344 25.4259 19.1885 25.8043 19.1885C26.0987 19.1885 26.1127 19.1745 27.9068 17.3874L29.7149 15.5793L30.4367 16.3012L31.1516 17.016L27.7176 20.45L24.2835 23.8841L17.871 17.4715L11.4585 11.059L14.8925 7.62496L18.3265 4.19093L19.0273 4.89175L19.7282 5.59257L18.0392 7.28857ZM22.8118 25.3278C22.104 25.9725 21.3681 26.1407 20.5622 25.8394C20.2117 25.7062 19.9945 25.524 18.8591 24.4097C18.1443 23.7089 17.4575 23.0851 17.3454 23.022C17.002 22.8468 16.3712 22.7557 15.9788 22.8328C15.5162 22.9239 15.1728 23.1061 14.7243 23.5056L14.3529 23.835L12.9092 22.3913L11.4655 20.9476L11.8509 20.5411C12.3275 20.0435 12.5097 19.609 12.5097 18.9783C12.5097 18.1583 12.3976 17.9761 10.9749 16.5254C9.51017 15.0257 9.363 14.8014 9.363 14.0375C9.35599 13.4208 9.53119 13.0213 10.0288 12.4887L10.4002 12.1032L16.8127 18.5228L23.2323 24.9423L22.8118 25.3278ZM11.8719 23.4566C12.9232 24.5078 13.3156 24.9493 13.2736 25.0124C13.1474 25.2226 6.34946 32.9737 6.07614 33.226C4.6815 34.5015 2.52997 34.074 1.72402 32.364C1.52779 31.9505 1.50677 31.8454 1.50677 31.2077C1.50677 30.5699 1.52779 30.4648 1.72402 30.0513C1.85718 29.771 2.08845 29.4556 2.31972 29.2313C2.8103 28.7548 10.3231 22.0059 10.3722 21.9988C10.3932 21.9918 11.066 22.6506 11.8719 23.4566Z" fill="url(#paint3_linear_24708_2197)"/>
<path d="M9.22355 25.2228C8.98527 25.2929 8.67691 25.5872 6.54641 27.7878C4.98357 29.4067 4.97656 29.4207 4.97656 29.7221C4.97656 30.2757 5.53021 30.6262 5.99976 30.3809C6.30813 30.2197 10.0155 26.3862 10.0996 26.1339C10.2888 25.5942 9.78421 25.0686 9.22355 25.2228Z" fill="url(#paint4_linear_24708_2197)"/>
<path d="M3.36246 31.0885C2.71069 31.4109 2.977 32.4341 3.71287 32.4341C4.5048 32.4341 4.69402 31.3128 3.94414 31.0254C3.71287 30.9413 3.64278 30.9413 3.36246 31.0885Z" fill="url(#paint5_linear_24708_2197)"/>
<path d="M25.9667 2.46682C25.6584 2.60698 23.64 4.67441 23.5839 4.90568C23.5138 5.17199 23.5909 5.4313 23.7942 5.63454C23.9273 5.76769 24.0394 5.80273 24.2917 5.80273H24.6281L25.8055 4.62535C26.9549 3.476 26.9829 3.44096 26.9829 3.15362C26.9829 2.61399 26.4433 2.24956 25.9667 2.46682Z" fill="url(#paint6_linear_24708_2197)"/>
<path d="M30.9405 3.44805C30.6601 3.58121 26.6584 7.60393 26.5673 7.84922C26.3851 8.3398 26.8547 8.87943 27.3873 8.78131C27.6116 8.73926 27.9339 8.44492 29.7351 6.65782C32.0267 4.37314 32.0898 4.28203 31.8656 3.79846C31.7885 3.63727 31.6553 3.51813 31.5011 3.44805C31.2138 3.32891 31.2068 3.32891 30.9405 3.44805Z" fill="url(#paint7_linear_24708_2197)"/>
<path d="M34.6828 5.58567C34.4095 5.866 34.3955 6.32854 34.6548 6.59485C35.1313 7.06441 35.8812 6.76305 35.8812 6.10428C35.8812 5.66977 35.6009 5.38243 35.1804 5.38243C34.9491 5.38243 34.844 5.42448 34.6828 5.58567Z" fill="url(#paint8_linear_24708_2197)"/>
<path d="M31.2069 9.04758C29.5319 10.7155 29.5039 10.7506 29.5039 11.0379C29.5039 11.2552 29.553 11.3743 29.7071 11.5425C29.8824 11.7247 29.9594 11.7598 30.2468 11.7598H30.5762L32.146 10.1969C33.015 9.34193 33.7649 8.557 33.821 8.45188C34.1013 7.91225 33.7579 7.34458 33.1342 7.34458C32.9309 7.34458 32.7347 7.51278 31.2069 9.04758Z" fill="url(#paint9_linear_24708_2197)"/>
<path d="M33.183 12.9653C32.4612 13.6872 32.3701 13.8904 32.5453 14.3109C32.6714 14.6193 33.0219 14.7945 33.3653 14.7244C33.6106 14.6753 34.3674 14.0095 34.7038 13.554C35.1243 12.9723 34.844 12.3206 34.1572 12.3206C33.8348 12.3206 33.8138 12.3346 33.183 12.9653Z" fill="url(#paint10_linear_24708_2197)"/>
<defs>
<linearGradient id="paint0_linear_24708_2197" x1="21.8081" y1="2.84961" x2="21.8081" y2="0.427984" gradientUnits="userSpaceOnUse">
<stop offset="0.452535" stop-color="#FFA588"/>
<stop offset="1" stop-color="#F36A3E"/>
</linearGradient>
<linearGradient id="paint1_linear_24708_2197" x1="28.2438" y1="1.85059" x2="28.2438" y2="0.412697" gradientUnits="userSpaceOnUse">
<stop offset="0.452535" stop-color="#FFA588"/>
<stop offset="1" stop-color="#F36A3E"/>
</linearGradient>
<linearGradient id="paint2_linear_24708_2197" x1="33.1989" y1="2.84619" x2="33.1989" y2="1.39369" gradientUnits="userSpaceOnUse">
<stop offset="0.452535" stop-color="#FFA588"/>
<stop offset="1" stop-color="#F36A3E"/>
</linearGradient>
<linearGradient id="paint3_linear_24708_2197" x1="16.4693" y1="35.4126" x2="16.4693" y2="2.40377" gradientUnits="userSpaceOnUse">
<stop offset="0.452535" stop-color="#FFA588"/>
<stop offset="1" stop-color="#F36A3E"/>
</linearGradient>
<linearGradient id="paint4_linear_24708_2197" x1="7.55832" y1="30.4604" x2="7.55832" y2="25.1955" gradientUnits="userSpaceOnUse">
<stop offset="0.452535" stop-color="#FFA588"/>
<stop offset="1" stop-color="#F36A3E"/>
</linearGradient>
<linearGradient id="paint5_linear_24708_2197" x1="3.70476" y1="32.4341" x2="3.70476" y2="30.9686" gradientUnits="userSpaceOnUse">
<stop offset="0.452535" stop-color="#FFA588"/>
<stop offset="1" stop-color="#F36A3E"/>
</linearGradient>
<linearGradient id="paint6_linear_24708_2197" x1="25.2708" y1="5.80273" x2="25.2708" y2="2.40301" gradientUnits="userSpaceOnUse">
<stop offset="0.452535" stop-color="#FFA588"/>
<stop offset="1" stop-color="#F36A3E"/>
</linearGradient>
<linearGradient id="paint7_linear_24708_2197" x1="29.2393" y1="8.79297" x2="29.2393" y2="3.3587" gradientUnits="userSpaceOnUse">
<stop offset="0.452535" stop-color="#FFA588"/>
<stop offset="1" stop-color="#F36A3E"/>
</linearGradient>
<linearGradient id="paint8_linear_24708_2197" x1="35.175" y1="6.82275" x2="35.175" y2="5.38243" gradientUnits="userSpaceOnUse">
<stop offset="0.452535" stop-color="#FFA588"/>
<stop offset="1" stop-color="#F36A3E"/>
</linearGradient>
<linearGradient id="paint9_linear_24708_2197" x1="31.7118" y1="11.7598" x2="31.7118" y2="7.34458" gradientUnits="userSpaceOnUse">
<stop offset="0.452535" stop-color="#FFA588"/>
<stop offset="1" stop-color="#F36A3E"/>
</linearGradient>
<linearGradient id="paint10_linear_24708_2197" x1="33.6853" y1="14.7397" x2="33.6853" y2="12.3206" gradientUnits="userSpaceOnUse">
<stop offset="0.452535" stop-color="#FFA588"/>
<stop offset="1" stop-color="#F36A3E"/>
</linearGradient>
</defs>
</svg>
