<svg width="45" height="33" viewBox="0 0 45 33" fill="none" xmlns="http://www.w3.org/2000/svg">
<path d="M21.6846 0.204814C21.358 0.307944 20.9627 0.46264 20.8252 0.531393C20.3439 0.789218 19.5361 1.44238 19.2783 1.79474L19.0204 2.1385L10.856 2.16429L2.69151 2.19007L2.20164 2.42211C1.60865 2.69712 1.03284 3.25574 0.749229 3.82296C0.568751 4.19251 0.542969 4.37299 0.542969 5.15506C0.542969 5.99728 0.560157 6.09182 0.800794 6.51293C1.12737 7.11453 1.76334 7.68174 2.35634 7.8966C2.82042 8.07707 2.96652 8.07707 10.856 8.07707H18.8829L19.5533 8.74742C21.1948 10.3803 23.4636 10.7585 25.5778 9.74434C26.0676 9.50371 26.3942 9.26307 26.9013 8.75601L27.5802 8.07707H34.8767C42.027 8.07707 42.1817 8.07707 42.6458 7.8966C43.2388 7.68174 43.8748 7.11453 44.2013 6.51293C44.442 6.09182 44.4592 5.99728 44.4592 5.15506C44.4592 4.37299 44.4334 4.19251 44.2529 3.82296C43.9693 3.25574 43.3935 2.69712 42.8005 2.42211L42.3106 2.19007L34.8767 2.16429L27.4427 2.1385L27.2021 1.80333C26.738 1.14158 25.5348 0.385292 24.5379 0.118873C23.816 -0.070199 22.3979 -0.0272284 21.6846 0.204814ZM24.7699 1.88068C26.2052 2.5854 27.056 4.16673 26.7982 5.65352C26.4544 7.63877 24.5895 9.02243 22.6987 8.70445C20.3697 8.30052 18.9861 5.834 19.9142 3.72842C20.3353 2.79166 21.1346 2.04397 22.0885 1.7002C22.4409 1.57988 22.7331 1.54551 23.3691 1.57129C24.0996 1.58848 24.2543 1.62285 24.7699 1.88068ZM18.1868 4.01203C18.0751 4.41596 18.0493 5.47304 18.1438 6.07463L18.2126 6.53012H10.6153H3.01809L2.72589 6.33246C2.22743 5.99728 2.02976 5.61914 2.06414 5.06052C2.10711 4.47612 2.36493 4.08078 2.8548 3.85734C3.18997 3.70264 3.57671 3.69405 10.7442 3.69405H18.2727L18.1868 4.01203ZM42.1559 3.87452C42.663 4.12376 42.895 4.47612 42.938 5.06052C42.9724 5.61914 42.7747 5.99728 42.2762 6.33246L41.984 6.53012H35.1173H28.2506L28.3193 6.07463C28.4053 5.49882 28.4053 4.81129 28.3193 4.18391L28.2506 3.69405H35.0142C41.7004 3.69405 41.7864 3.69405 42.1559 3.87452Z" fill="url(#paint0_linear_24708_2190)"/>
<path d="M11.5951 11.136C10.7786 11.3509 9.95358 11.8493 9.29183 12.5111L8.67305 13.1385L5.68228 13.1643L2.69151 13.19L2.20164 13.4221C1.60865 13.6971 1.03284 14.2557 0.749229 14.8229C0.568751 15.1925 0.542969 15.373 0.542969 16.155C0.542969 16.9973 0.560157 17.0918 0.800794 17.5129C1.12737 18.1145 1.76334 18.6817 2.35634 18.8966C2.79464 19.0684 3.0095 19.077 5.76822 19.077H8.70743L8.99963 19.438C9.90202 20.5638 11.4833 21.3115 12.9615 21.3115C14.4226 21.3115 16.1414 20.5123 16.932 19.4638L17.2157 19.0856L29.6944 19.077C42.07 19.077 42.1817 19.077 42.6458 18.8966C43.2388 18.6817 43.8748 18.1145 44.2013 17.5129C44.442 17.0918 44.4592 16.9973 44.4592 16.155C44.4592 15.373 44.4334 15.1925 44.2529 14.8229C43.9693 14.2557 43.3935 13.6971 42.8005 13.4221L42.3106 13.19L29.7889 13.1643L17.2758 13.1471L16.6398 12.5111C15.9609 11.8236 15.1531 11.3509 14.2765 11.1274C13.6577 10.9641 12.2138 10.9727 11.5951 11.136ZM14.1389 12.7259C16.7602 13.7057 17.4133 17.0144 15.3335 18.845C14.5687 19.5239 13.3655 19.8677 12.3857 19.6872C9.54106 19.163 8.38085 15.7941 10.3231 13.6885C11.2685 12.6658 12.8756 12.2619 14.1389 12.7259ZM7.91677 15.012C7.83082 15.4159 7.83082 16.8769 7.90817 17.2465L7.97692 17.5301H5.49321C3.06106 17.5301 3.0095 17.5301 2.72589 17.3324C2.22743 16.9973 2.02976 16.6191 2.06414 16.0605C2.10711 15.4761 2.36493 15.0808 2.8548 14.8573C3.17278 14.7112 3.45639 14.694 5.59634 14.694H7.98552L7.91677 15.012ZM42.1559 14.8745C42.663 15.1237 42.895 15.4761 42.938 16.0605C42.9724 16.6191 42.7747 16.9973 42.2762 17.3324L41.984 17.5301H29.9608H17.9462L18.0063 17.2895C18.0923 16.9973 18.0923 15.3472 18.0149 14.969L17.9548 14.694H29.8663C41.7692 14.694 41.7864 14.694 42.1559 14.8745Z" fill="url(#paint1_linear_24708_2190)"/>
<path d="M30.7858 22.8589C29.6772 23.1425 28.6287 23.7956 28.0701 24.5347L27.7865 24.9129L15.3077 24.9215C2.93215 24.9215 2.82042 24.9215 2.35634 25.102C1.76334 25.3168 1.12737 25.884 0.800794 26.4856C0.560157 26.9067 0.542969 27.0013 0.542969 27.8435C0.542969 28.6256 0.568751 28.806 0.749229 29.1756C1.03284 29.7428 1.60865 30.3014 2.20164 30.5764L2.69151 30.8085L15.2132 30.8343L27.7263 30.8515L28.3623 31.4788C29.428 32.5359 30.5452 33 32.0234 33C33.5188 33 34.6618 32.5273 35.7103 31.4788L36.3377 30.8601L39.3199 30.8343L42.3106 30.8085L42.8005 30.5764C43.3935 30.3014 43.9693 29.7428 44.2529 29.1756C44.4334 28.806 44.4592 28.6256 44.4592 27.8435C44.4592 27.0013 44.442 26.9067 44.2013 26.4856C43.8748 25.884 43.2388 25.3168 42.6458 25.102C42.2075 24.9301 41.9926 24.9215 39.2339 24.9215H36.2947L36.0025 24.5519C34.8079 23.0651 32.6594 22.369 30.7858 22.8589ZM32.7453 24.3285C34.8165 24.7582 36.097 26.8981 35.4783 28.892C35.1603 29.9233 34.5071 30.671 33.5102 31.1351C32.7883 31.4788 31.714 31.5562 31.0007 31.3241C28.6373 30.5593 27.6834 27.7662 29.11 25.7723C29.4967 25.2309 29.8147 24.9645 30.4679 24.6293C31.2413 24.2425 31.9031 24.1566 32.7453 24.3285ZM26.9872 26.7434C26.9099 27.113 26.9099 28.6599 26.9872 29.0209L27.056 29.3045H15.1273C3.68843 29.3045 3.18997 29.2959 2.8548 29.1412C2.36493 28.9178 2.10711 28.5224 2.06414 27.938C2.02976 27.3794 2.22743 27.0013 2.72589 26.6661L3.01809 26.4684H15.0327H27.0474L26.9872 26.7434ZM42.2762 26.6661C42.7747 27.0013 42.9724 27.3794 42.938 27.938C42.895 28.5224 42.6372 28.9178 42.1473 29.1412C41.8294 29.2873 41.5457 29.3045 39.4058 29.3045H37.0166L37.0854 28.9779C37.1713 28.5826 37.1713 27.1216 37.094 26.7434L37.0338 26.4684H39.5089C41.9411 26.4684 41.9926 26.4684 42.2762 26.6661Z" fill="url(#paint2_linear_24708_2190)"/>
<defs>
<linearGradient id="paint0_linear_24708_2190" x1="22.5011" y1="10.3052" x2="22.5011" y2="0.000245094" gradientUnits="userSpaceOnUse">
<stop offset="0.452535" stop-color="#FFA588"/>
<stop offset="1" stop-color="#F36A3E"/>
</linearGradient>
<linearGradient id="paint1_linear_24708_2190" x1="22.5011" y1="21.3115" x2="22.5011" y2="11.0092" gradientUnits="userSpaceOnUse">
<stop offset="0.452535" stop-color="#FFA588"/>
<stop offset="1" stop-color="#F36A3E"/>
</linearGradient>
<linearGradient id="paint2_linear_24708_2190" x1="22.5011" y1="33" x2="22.5011" y2="22.7035" gradientUnits="userSpaceOnUse">
<stop offset="0.452535" stop-color="#FFA588"/>
<stop offset="1" stop-color="#F36A3E"/>
</linearGradient>
</defs>
</svg>
