<svg width="47" height="36" viewBox="0 0 47 36" fill="none" xmlns="http://www.w3.org/2000/svg">
<path d="M46.5021 3.60694C46.1558 2.68639 45.6454 2.03927 44.8889 1.55621C43.9045 0.927315 44.4787 0.963772 34.6899 0.963772C26.4414 0.963772 25.8307 0.982001 25.6484 1.12783C25.5391 1.20986 25.4023 1.37392 25.3477 1.48329C25.2018 1.76584 25.2018 35.1609 25.3477 35.4435C25.4023 35.5528 25.5391 35.7169 25.6484 35.7989C25.8216 35.9448 26.25 35.963 31.0897 35.963H36.3396L36.6951 35.6987C37.1143 35.3797 46.3016 26.1741 46.5204 25.846C46.6571 25.6455 46.6662 24.6703 46.6571 14.8176C46.6571 4.95587 46.6388 3.98063 46.5021 3.60694ZM41.3981 24.2966C37.7888 24.2966 37.6794 24.3148 36.7771 24.889C36.0024 25.3903 35.4464 26.1012 35.1547 26.9762C35.018 27.3681 34.9998 27.8876 34.9998 30.6949V33.9578H31.1262H27.2526L27.2526 18.4634L27.2526 2.96894L35.1821 2.96894C43.859 2.96894 43.467 2.94159 44.0595 3.49757C44.2053 3.63429 44.3967 3.90772 44.4878 4.10823C44.6519 4.45458 44.661 4.92853 44.661 14.3893L44.661 24.2966H41.3981ZM37.0232 30.2483C36.9958 27.76 37.0323 27.4866 37.488 26.9671C38.0349 26.3382 38.2172 26.3017 40.8786 26.3017H43.2483L40.1494 29.4006L37.0505 32.4995L37.0232 30.2483Z" fill="url(#paint0_linear_24708_2212)"/>
<path d="M34.882 17.9438C34.7726 17.7433 31.0904 14.9178 30.6256 14.6809C29.7233 14.216 28.8392 15.091 29.2676 16.0298C29.3222 16.1483 30.0149 16.7316 30.817 17.3331C31.6099 17.9256 32.2662 18.436 32.2662 18.4633C32.2662 18.4907 31.5917 19.0102 30.7714 19.63C29.942 20.2497 29.2493 20.8148 29.222 20.8969C29.1217 21.1338 29.1673 21.7992 29.2858 21.945C29.6321 22.3734 30.1516 22.4919 30.6256 22.2458C31.0904 22.0088 34.7726 19.1834 34.882 18.9828C34.9458 18.8735 34.9914 18.6365 34.9914 18.4633C34.9914 18.2901 34.9458 18.0532 34.882 17.9438Z" fill="url(#paint1_linear_24708_2212)"/>
<path d="M21.3101 1.46516C21.2554 1.3649 21.1278 1.20996 21.0185 1.12793C20.8362 0.982096 20.2255 0.963867 11.977 0.963867C3.96547 0.963867 3.09049 0.982096 2.68034 1.11881C1.80536 1.41047 1.09444 1.96645 0.593147 2.74117C-0.0448598 3.73464 0.000712061 2.53154 0.000712061 18.4635C0.000712061 31.6246 0.00982644 32.8733 0.155656 33.2835C0.447317 34.1584 1.00329 34.8694 1.77802 35.3706C2.75325 35.9995 2.17905 35.9631 11.977 35.9631C20.2255 35.9631 20.8362 35.9449 21.0185 35.799C21.1278 35.717 21.2646 35.5529 21.3192 35.4436C21.4651 35.161 21.456 1.72947 21.3101 1.46516ZM11.4666 33.9579C3.91989 33.9579 3.49152 33.9488 3.14517 33.7847C2.69857 33.5751 2.33399 33.2014 2.15171 32.7548C2.0241 32.454 2.00588 30.8681 2.00588 18.4635C2.00588 6.0588 2.0241 4.4729 2.15171 4.17213C2.33399 3.72552 2.69857 3.35183 3.14517 3.1422C3.49152 2.97814 3.91989 2.96903 11.4666 2.96903L19.4143 2.96903L19.4143 18.4635L19.4143 33.9579L11.4666 33.9579Z" fill="url(#paint2_linear_24708_2212)"/>
<path d="M17.4283 15.064C17.328 14.827 16.8632 14.5444 16.5624 14.5444C16.4257 14.5444 16.1887 14.6082 16.0429 14.6811C15.6692 14.8726 12.0234 17.6251 11.832 17.8621C11.7318 17.9806 11.668 18.2084 11.668 18.4636C11.668 18.7188 11.7318 18.9467 11.832 19.0652C12.0234 19.3021 15.6692 22.0547 16.0429 22.2461C16.9452 22.7109 17.8293 21.8359 17.4009 20.8972C17.3462 20.7787 16.6535 20.1953 15.8515 19.5938C15.0585 19.0014 14.4023 18.491 14.4023 18.4636C14.4023 18.4363 15.0585 17.9259 15.8515 17.3334C16.6535 16.7319 17.3462 16.1486 17.4009 16.0301C17.5103 15.784 17.5194 15.31 17.4283 15.064Z" fill="url(#paint3_linear_24708_2212)"/>
<defs>
<linearGradient id="paint0_linear_24708_2212" x1="25.2383" y1="18.4632" x2="46.6596" y2="18.4632" gradientUnits="userSpaceOnUse">
<stop offset="0.452535" stop-color="#FFA588"/>
<stop offset="1" stop-color="#F36A3E"/>
</linearGradient>
<linearGradient id="paint1_linear_24708_2212" x1="29.1562" y1="18.4624" x2="34.9914" y2="18.4624" gradientUnits="userSpaceOnUse">
<stop offset="0.452535" stop-color="#FFA588"/>
<stop offset="1" stop-color="#F36A3E"/>
</linearGradient>
<linearGradient id="paint2_linear_24708_2212" x1="0" y1="18.4637" x2="21.4242" y2="18.4637" gradientUnits="userSpaceOnUse">
<stop offset="0.452535" stop-color="#FFA588"/>
<stop offset="1" stop-color="#F36A3E"/>
</linearGradient>
<linearGradient id="paint3_linear_24708_2212" x1="11.668" y1="18.4596" x2="17.5122" y2="18.4596" gradientUnits="userSpaceOnUse">
<stop offset="0.452535" stop-color="#FFA588"/>
<stop offset="1" stop-color="#F36A3E"/>
</linearGradient>
</defs>
</svg>
