<svg width="35" height="36" viewBox="0 0 35 36" fill="none" xmlns="http://www.w3.org/2000/svg">
<path d="M2.02474 1.00693C1.21074 1.30107 0.60879 1.84829 0.218891 2.64177L0 3.09324V18.3814V33.6696L0.218891 34.121C0.615631 34.935 1.23126 35.4754 2.05894 35.7559C2.45568 35.8927 2.65405 35.8927 17.6139 35.879L32.7652 35.8585L33.244 35.6259C33.8734 35.3181 34.4137 34.7777 34.7216 34.1484L34.9541 33.6696V18.3814V3.09324L34.7216 2.61441C34.4137 1.9851 33.8734 1.44471 33.244 1.1369L32.7652 0.904327L17.5797 0.890648C2.7293 0.876965 2.38728 0.876965 2.02474 1.00693ZM32.389 3.10692C32.519 3.189 32.69 3.36001 32.7652 3.48314C32.8952 3.69519 32.902 3.85251 32.9226 6.39028L32.9431 9.07854H17.4771H2.01106L2.03158 6.39028C2.0521 3.76359 2.0521 3.70203 2.20259 3.46946C2.36676 3.20268 2.56513 3.05904 2.87294 2.98379C2.98923 2.95643 9.61752 2.94275 17.6139 2.94275L32.1496 2.95643L32.389 3.10692ZM32.9226 22.0889C32.902 32.9171 32.902 33.0539 32.7652 33.2797C32.69 33.4028 32.519 33.5738 32.389 33.6559L32.1496 33.8064H17.4771H2.80454L2.56513 33.6559C2.43516 33.5738 2.26415 33.4028 2.18891 33.2797C2.0521 33.0539 2.0521 32.9171 2.03158 22.0889L2.0179 11.1306H17.4771H32.9362L32.9226 22.0889Z" fill="url(#paint0_linear_24708_2220)"/>
<path d="M6.64287 5.10423C6.32821 5.31628 6.19141 5.57622 6.19141 6.00032C6.19141 6.65015 6.56762 7.02637 7.21746 7.02637C7.86729 7.02637 8.24351 6.65015 8.24351 6.00032C8.24351 5.35048 7.86729 4.97427 7.21746 4.97427C6.96436 4.97427 6.77968 5.01531 6.64287 5.10423Z" fill="url(#paint1_linear_24708_2220)"/>
<path d="M10.7444 5.10423C10.4298 5.31628 10.293 5.57622 10.293 6.00032C10.293 6.65015 10.6692 7.02637 11.319 7.02637C11.9689 7.02637 12.3451 6.65015 12.3451 6.00032C12.3451 5.35048 11.9689 4.97427 11.319 4.97427C11.0659 4.97427 10.8812 5.01531 10.7444 5.10423Z" fill="url(#paint2_linear_24708_2220)"/>
<path d="M14.8499 5.10423C14.5352 5.31628 14.3984 5.57622 14.3984 6.00032C14.3984 6.65015 14.7747 7.02637 15.4245 7.02637C16.0743 7.02637 16.4505 6.65015 16.4505 6.00032C16.4505 5.35048 16.0743 4.97427 15.4245 4.97427C15.1714 4.97427 14.9867 5.01531 14.8499 5.10423Z" fill="url(#paint3_linear_24708_2220)"/>
<path d="M6.64287 13.3126C6.54026 13.381 6.38978 13.5315 6.32137 13.6341C6.19825 13.8188 6.19141 14.0172 6.19141 17.3211C6.19141 20.625 6.19825 20.8233 6.32137 21.008C6.38978 21.1106 6.54026 21.2611 6.64287 21.3295C6.8344 21.4526 7.17642 21.4595 17.5122 21.4595C27.8479 21.4595 28.1899 21.4526 28.3815 21.3295C28.4841 21.2611 28.6346 21.1106 28.703 21.008C28.8261 20.8233 28.8329 20.625 28.8329 17.3211C28.8329 14.0172 28.8261 13.8188 28.703 13.6341C28.6346 13.5315 28.4841 13.381 28.3815 13.3126C28.1899 13.1895 27.8479 13.1827 17.5122 13.1827C7.17642 13.1827 6.8344 13.1895 6.64287 13.3126ZM26.7808 17.3211V19.4074H17.5122H8.24351V17.3211V15.2348H17.5122H26.7808V17.3211Z" fill="url(#paint4_linear_24708_2220)"/>
<path d="M6.64287 23.6417C6.54026 23.7101 6.38978 23.8606 6.32137 23.9632C6.19825 24.1479 6.19141 24.3463 6.19141 27.6502C6.19141 30.9541 6.19825 31.1524 6.32137 31.3371C6.38978 31.4397 6.54026 31.5902 6.64287 31.6586C6.8344 31.7817 7.06697 31.7886 12.3477 31.7886C17.6285 31.7886 17.861 31.7817 18.0526 31.6586C18.1552 31.5902 18.3056 31.4397 18.3741 31.3371C18.4972 31.1524 18.504 30.9541 18.504 27.6502C18.504 24.3463 18.4972 24.1479 18.3741 23.9632C18.3056 23.8606 18.1552 23.7101 18.0526 23.6417C17.861 23.5186 17.6285 23.5118 12.3477 23.5118C7.06697 23.5118 6.8344 23.5186 6.64287 23.6417ZM16.4519 27.6502V29.7365H12.3477H8.24351V27.6502V25.5639H12.3477H16.4519V27.6502Z" fill="url(#paint5_linear_24708_2220)"/>
<path d="M21.0061 23.6417C20.9035 23.7101 20.7531 23.8606 20.6847 23.9632C20.5615 24.1479 20.5547 24.3463 20.5547 27.6502C20.5547 30.9541 20.5615 31.1524 20.6847 31.3371C20.7531 31.4397 20.9035 31.5902 21.0061 31.6586C21.1908 31.7817 21.3892 31.7886 24.6931 31.7886C27.997 31.7886 28.1953 31.7817 28.38 31.6586C28.4826 31.5902 28.6331 31.4397 28.7015 31.3371C28.8247 31.1524 28.8315 30.9541 28.8315 27.6502C28.8315 24.3463 28.8247 24.1479 28.7015 23.9632C28.6331 23.8606 28.4826 23.7101 28.38 23.6417C28.1953 23.5186 27.997 23.5118 24.6931 23.5118C21.3892 23.5118 21.1908 23.5186 21.0061 23.6417ZM26.7794 27.6502V29.7365H24.6931H22.6068V27.6502V25.5639H24.6931H26.7794V27.6502Z" fill="url(#paint6_linear_24708_2220)"/>
<defs>
<linearGradient id="paint0_linear_24708_2220" x1="17.4771" y1="35.8848" x2="17.4771" y2="0.884766" gradientUnits="userSpaceOnUse">
<stop offset="0.452535" stop-color="#FFA588"/>
<stop offset="1" stop-color="#F36A3E"/>
</linearGradient>
<linearGradient id="paint1_linear_24708_2220" x1="7.21746" y1="7.02637" x2="7.21746" y2="4.97427" gradientUnits="userSpaceOnUse">
<stop offset="0.452535" stop-color="#FFA588"/>
<stop offset="1" stop-color="#F36A3E"/>
</linearGradient>
<linearGradient id="paint2_linear_24708_2220" x1="11.319" y1="7.02637" x2="11.319" y2="4.97427" gradientUnits="userSpaceOnUse">
<stop offset="0.452535" stop-color="#FFA588"/>
<stop offset="1" stop-color="#F36A3E"/>
</linearGradient>
<linearGradient id="paint3_linear_24708_2220" x1="15.4245" y1="7.02637" x2="15.4245" y2="4.97427" gradientUnits="userSpaceOnUse">
<stop offset="0.452535" stop-color="#FFA588"/>
<stop offset="1" stop-color="#F36A3E"/>
</linearGradient>
<linearGradient id="paint4_linear_24708_2220" x1="17.5122" y1="21.4595" x2="17.5122" y2="13.1827" gradientUnits="userSpaceOnUse">
<stop offset="0.452535" stop-color="#FFA588"/>
<stop offset="1" stop-color="#F36A3E"/>
</linearGradient>
<linearGradient id="paint5_linear_24708_2220" x1="12.3477" y1="31.7886" x2="12.3477" y2="23.5118" gradientUnits="userSpaceOnUse">
<stop offset="0.452535" stop-color="#FFA588"/>
<stop offset="1" stop-color="#F36A3E"/>
</linearGradient>
<linearGradient id="paint6_linear_24708_2220" x1="24.6931" y1="31.7886" x2="24.6931" y2="23.5118" gradientUnits="userSpaceOnUse">
<stop offset="0.452535" stop-color="#FFA588"/>
<stop offset="1" stop-color="#F36A3E"/>
</linearGradient>
</defs>
</svg>
